<?xml version="1.0"?>
<svg xmlns="http://www.w3.org/2000/svg" enable-background="new 0 0 60 46" height="512px" viewBox="0 0 60 46" width="512px" class=""><g transform="matrix(1 0 0 1 0 0)"><path d="m44 30h-3c-.552 0-1-.447-1-1s.448-1 1-1h3c.552 0 1 .447 1 1s-.448 1-1 1z" data-original="#000000" class="active-path" data-old_color="#000000" fill="#0D3E98"/><path d="m48 46c-3.86 0-7-3.141-7-7s3.14-7 7-7 7 3.141 7 7-3.14 7-7 7zm0-12c-2.757 0-5 2.243-5 5s2.243 5 5 5 5-2.243 5-5-2.243-5-5-5z" data-original="#000000" class="active-path" data-old_color="#000000" fill="#0D3E98"/><path d="m49.021 42h-2.042c-1.091 0-1.979-.887-1.979-1.978v-2.043c0-1.091.888-1.979 1.979-1.979h2.042c1.091 0 1.979.888 1.979 1.979v2.043c0 1.091-.888 1.978-1.979 1.978zm-.021-4.021-2.021.021.021 2.022 2-.022z" data-original="#000000" class="active-path" data-old_color="#000000" fill="#0D3E98"/><path d="m12 46c-3.86 0-7-3.141-7-7s3.14-7 7-7 7 3.141 7 7-3.14 7-7 7zm0-12c-2.757 0-5 2.243-5 5s2.243 5 5 5 5-2.243 5-5-2.243-5-5-5z" data-original="#000000" class="active-path" data-old_color="#000000" fill="#0D3E98"/><path d="m13.021 42h-2.042c-1.091 0-1.979-.887-1.979-1.978v-2.043c0-1.091.888-1.979 1.979-1.979h2.042c1.091 0 1.979.888 1.979 1.979v2.043c0 1.091-.888 1.978-1.979 1.978zm-.021-4.021-2.021.021.021 2.022 2-.022z" data-original="#000000" class="active-path" data-old_color="#000000" fill="#0D3E98"/><path d="m37 34h-36c-.552 0-1-.447-1-1v-25.001c0-2.205 1.794-3.999 3.999-3.999h30.002c2.205 0 3.999 1.794 3.999 3.999v25.001c0 .553-.448 1-1 1zm-35-2h34v-24.001c0-1.102-.897-1.999-1.999-1.999h-30.002c-1.102 0-1.999.897-1.999 1.999z" data-original="#000000" class="active-path" data-old_color="#000000" fill="#0D3E98"/><path d="m52 23h-11c-.552 0-1-.447-1-1v-5c0-.553.448-1 1-1h10.929c.495 0 .915.361.989.851.044.291.082.569.082.857v4.292c0 .553-.448 1-1 1zm-10-2h9v-3h-9z" data-original="#000000" class="active-path" data-old_color="#000000" fill="#0D3E98"/><path d="m59 38h-5.349c-.424 0-.801-.267-.943-.666-.705-1.994-2.598-3.334-4.708-3.334s-4.003 1.34-4.709 3.334c-.141.4-.519.666-.942.666h-5.349c-.552 0-1-.447-1-1v-24c0-.553.448-1 1-1h10.292c3.147 0 5.708 2.561 5.708 5.708v6.292h1c3.308 0 6 2.691 6 6v7c0 .553-.448 1-1 1zm-4.681-2h3.681v-6c0-2.206-1.794-4-4-4h-2c-.552 0-1-.447-1-1v-7.292c0-2.045-1.664-3.708-3.708-3.708h-9.292v22h3.681c1.149-2.419 3.605-4 6.319-4s5.17 1.581 6.319 4z" data-original="#000000" class="active-path" data-old_color="#000000" fill="#0D3E98"/><path d="m6.349 38h-5.349c-.552 0-1-.447-1-1v-4c0-.553.448-1 1-1h11c.552 0 1 .447 1 1s-.448 1-1 1c-2.11 0-4.003 1.34-4.709 3.334-.141.4-.519.666-.942.666zm-4.349-2h3.681c.359-.756.846-1.431 1.428-2h-5.109z" data-original="#000000" class="active-path" data-old_color="#000000" fill="#0D3E98"/><path d="m37 38h-19.349c-.424 0-.801-.267-.943-.666-.705-1.994-2.598-3.334-4.708-3.334-.552 0-1-.447-1-1s.448-1 1-1h25c.552 0 1 .447 1 1v4c0 .553-.448 1-1 1zm-18.681-2h17.681v-2h-19.109c.582.57 1.069 1.244 1.428 2z" data-original="#000000" class="active-path" data-old_color="#000000" fill="#0D3E98"/><path d="m59 34h-4c-.552 0-1-.447-1-1v-4c0-.553.448-1 1-1h3.899c.476 0 .886.335.98.802.08.395.121.798.121 1.198v3c0 .553-.448 1-1 1zm-3-2h2v-2h-2z" data-original="#000000" class="active-path" data-old_color="#000000" fill="#0D3E98"/><path d="m19 30c-6.065 0-11-4.935-11-11s4.935-11 11-11 11 4.935 11 11-4.935 11-11 11zm0-20c-4.963 0-9 4.037-9 9s4.037 9 9 9 9-4.037 9-9-4.037-9-9-9z" data-original="#000000" class="active-path" data-old_color="#000000" fill="#0D3E98"/><path d="m21 26h-4c-.552 0-1-.447-1-1v-3h-3c-.552 0-1-.447-1-1v-4c0-.553.448-1 1-1h3v-3c0-.553.448-1 1-1h4c.552 0 1 .447 1 1v3h3c.552 0 1 .447 1 1v4c0 .553-.448 1-1 1h-3v3c0 .553-.448 1-1 1zm-3-2h2v-3c0-.553.448-1 1-1h3v-2h-3c-.552 0-1-.447-1-1v-3h-2v3c0 .553-.448 1-1 1h-3v2h3c.552 0 1 .447 1 1z" data-original="#000000" class="active-path" data-old_color="#000000" fill="#0D3E98"/><path d="m46 14h-4c-.552 0-1-.447-1-1v-3c0-1.654 1.346-3 3-3s3 1.346 3 3v3c0 .553-.448 1-1 1zm-3-2h2v-2c0-.552-.448-1-1-1s-1 .448-1 1z" data-original="#000000" class="active-path" data-old_color="#000000" fill="#0D3E98"/><path d="m44 5c-.552 0-1-.447-1-1v-3c0-.553.448-1 1-1s1 .447 1 1v3c0 .553-.448 1-1 1z" data-original="#000000" class="active-path" data-old_color="#000000" fill="#0D3E98"/><path d="m47.999 5c-.191 0-.383-.055-.554-.168-.459-.307-.584-.927-.277-1.387l2-3c.307-.459.928-.582 1.387-.277.459.307.584.927.277 1.387l-2 3c-.193.289-.51.445-.833.445z" data-original="#000000" class="active-path" data-old_color="#000000" fill="#0D3E98"/><path d="m40.001 5c-.323 0-.64-.156-.833-.445l-2-3c-.306-.46-.182-1.08.277-1.387s1.081-.183 1.387.277l2 3c.306.46.182 1.08-.277 1.387-.171.114-.364.168-.554.168z" data-original="#000000" class="active-path" data-old_color="#000000" fill="#0D3E98"/></g> </svg>
