<?xml version="1.0" encoding="iso-8859-1"?>
<!-- Generator: Adobe Illustrator 21.0.0, SVG Export Plug-In . SVG Version: 6.00 Build 0)  -->
<svg xmlns="http://www.w3.org/2000/svg" xmlns:xlink="http://www.w3.org/1999/xlink" version="1.1" id="Capa_1" x="0px" y="0px" viewBox="0 0 512 512" style="enable-background:new 0 0 512 512;" xml:space="preserve" width="512" height="512">
<g>
	<path style="fill:#F4D34C;" d="M462.987,302.366c-13.413-40.436-24.679-56.206-6.795-150.354   c16.508-86.902-61.478-128.796-97.965-120.37c-121.319-85.175-251.945,17.474-240.588,120.37   c10.513,95.253,11.769,109.917-1.644,150.354c-20.654,62.267-22.383,150.49,141.073,150.49h64.847   C485.369,452.856,483.641,364.633,462.987,302.366z"/>
	<path style="fill:#D6A10D;" d="M462.987,302.366c-13.413-40.436-24.679-56.206-6.795-150.354   c15.459-81.38-51.949-123.29-90.542-121.368c33.049,12.672,69.591,52.851,58.411,118.313c-16.242,95.104-6.01,111.033,6.171,151.88   c18.758,62.899,20.327,152.019-128.118,152.019h19.801C485.369,452.856,483.641,364.633,462.987,302.366z"/>
	<path style="fill:#ED80A6;" d="M279.453,376.592h17.975C329.721,330.55,450.374,357.865,411.073,512H165.807   C126.506,357.865,247.16,330.55,279.453,376.592z"/>
	<path style="fill:#C44587;" d="M328.274,357.555c40.439,7.827,81.361,54.429,56.423,154.445H165.808l0,0h245.265   C441.873,391.205,374.434,348.304,328.274,357.555z"/>
	<path style="fill:#EBEEF2;" d="M312.119,336.869h-47.352c-66.926,18.862-57.272,79.208-35.42,90.478   c9.069,4.678,32.623-8.277,50.871-40.342h16.449c18.249,32.065,41.802,45.02,50.871,40.342   C369.391,416.077,379.046,355.732,312.119,336.869z"/>
	<path style="fill:#F6BB93;" d="M288.44,405.602c13.098,0,37.047-16.587,37.047-37.047v-45.853h-74.095v45.853   C251.393,389.015,275.342,405.602,288.44,405.602z"/>
	<path style="fill:#E49775;" d="M251.393,357.636c23.012,5.326,49.286,6.79,74.095,4.394v-39.328h-74.095V357.636z"/>
	<path style="fill:#243B5D;" d="M423.606,336.736c-2.593,0-5.113-1.345-6.503-3.752c-2.07-3.588-0.841-8.174,2.747-10.245   l10.621-6.13c2.932-1.692,4.528-5.075,3.974-8.418l-8.075-48.435c-0.682-4.086,2.078-7.95,6.164-8.631   c4.088-0.688,7.949,2.079,8.631,6.164l8.076,48.439c1.575,9.478-2.955,19.069-11.271,23.871l-10.622,6.131   C426.168,336.412,424.878,336.736,423.606,336.736z"/>
	<path style="fill:#85B4E1;" d="M413.266,190.861h-37.178v73.912h37.178c20.287,0,36.734-16.446,36.734-36.734v-0.444   C450,207.307,433.553,190.861,413.266,190.861z"/>
	<path style="fill:#3F80C1;" d="M444.094,207.63c-1.373,19.036-17.24,34.056-36.626,34.056h-31.38v23.087h37.178   c20.287,0,36.734-16.446,36.734-36.734v-0.444C450,220.231,447.825,213.379,444.094,207.63z"/>
	<path style="fill:#F6BB93;" d="M405.183,276.593c0,82.445-233.48,82.445-233.48,0c0-20.779,1.185-47.337,3.626-73.298   c17.173-30.74,45.019-50.54,87.349-53.404c43.463-2.936,70.145-17.297,86.072-34.902c8.705,28.629,28.855,49.521,49.078,56.804   C402.814,206.51,405.183,247.686,405.183,276.593z"/>
	<path style="fill:#E49775;" d="M367.536,149.74c6.648,37.815,9.764,91.501,9.764,126.853c0,39.475-47.136,60.046-96.269,61.72   c0.008,0,0.017,0,0.025,0.001c1.718,0.039,3.536,0.074,5.434,0.103c59.014,0.465,118.694-20.141,118.694-61.823   c0-33.733-3.096-75.71-7.359-104.802C386.128,167.581,375.586,159.23,367.536,149.74z"/>
	<g>
		<path style="fill:#243B5D;" d="M333.648,226.742c-4.143,0-7.5-3.357-7.5-7.5v-11.909c0-4.143,3.357-7.5,7.5-7.5s7.5,3.357,7.5,7.5    v11.909C341.148,223.385,337.791,226.742,333.648,226.742z"/>
		<path style="fill:#243B5D;" d="M352.271,192.701c-1.588,0-3.188-0.502-4.548-1.541c-9.736-7.44-18.417-7.439-28.149,0    c-3.291,2.516-7.998,1.887-10.513-1.405c-2.516-3.291-1.887-7.997,1.405-10.513c15.168-11.591,31.2-11.589,46.364,0    c3.292,2.516,3.921,7.222,1.405,10.513C356.76,191.687,354.528,192.701,352.271,192.701z"/>
		<path style="fill:#243B5D;" d="M238.438,226.742c-4.143,0-7.5-3.357-7.5-7.5v-11.909c0-4.143,3.357-7.5,7.5-7.5s7.5,3.357,7.5,7.5    v11.909C245.938,223.385,242.581,226.742,238.438,226.742z"/>
		<path style="fill:#243B5D;" d="M257.061,192.701c-1.588,0-3.188-0.502-4.548-1.541c-9.734-7.439-18.414-7.439-28.148,0    c-3.291,2.516-7.998,1.887-10.513-1.405c-2.516-3.291-1.887-7.997,1.405-10.513c15.164-11.59,31.199-11.59,46.363,0    c3.292,2.516,3.921,7.222,1.405,10.513C261.549,191.687,259.317,192.701,257.061,192.701z"/>
	</g>
	<path style="fill:#243B5D;" d="M286.043,288.506c-13.275,0-26.551-4.816-37.137-14.447c-3.063-2.788-3.287-7.531-0.5-10.596   c2.789-3.063,7.531-3.287,10.596-0.5c15.417,14.027,38.668,14.027,54.083,0c3.064-2.785,7.808-2.563,10.596,0.5   c2.787,3.064,2.563,7.808-0.5,10.596C312.595,283.689,299.319,288.506,286.043,288.506z"/>
	<path style="fill:#EBEEF2;" d="M288.44,445.155c-4.143,0-7.5-3.357-7.5-7.5v-3.486c0-4.143,3.357-7.5,7.5-7.5s7.5,3.357,7.5,7.5   v3.486C295.94,441.798,292.583,445.155,288.44,445.155z"/>
	<path style="fill:#EBEEF2;" d="M288.44,483.667c-4.143,0-7.5-3.357-7.5-7.5v-3.485c0-4.143,3.357-7.5,7.5-7.5s7.5,3.357,7.5,7.5   v3.485C295.94,480.31,292.583,483.667,288.44,483.667z"/>
	<path style="fill:#C44587;" d="M385.387,512v-39.318c0-4.143-3.357-7.5-7.5-7.5s-7.5,3.357-7.5,7.5V512H385.387z"/>
	<path style="fill:#52668D;" d="M39.301,318.007V444.66c0,9.835,7.973,17.808,17.808,17.808H249.85   c9.835,0,17.808-7.973,17.808-17.808V318.007c0-9.835-7.973-17.808-17.808-17.808H57.108   C47.274,300.199,39.301,308.172,39.301,318.007z"/>
	<path style="fill:#243B5D;" d="M249.85,300.199h-27.093c9.835,0,17.808,7.973,17.808,17.808V444.66   c0,9.835-7.973,17.808-17.808,17.808h27.093c9.835,0,17.808-7.973,17.808-17.808V318.007   C267.658,308.172,259.685,300.199,249.85,300.199z"/>
	<path style="fill:#C2E8EF;" d="M174.031,498.489h-41.104l5.374-76.989c0.188-2.699,2.433-4.792,5.138-4.792h20.079   c2.706,0,4.95,2.093,5.138,4.792L174.031,498.489z"/>
	<path style="fill:#52668D;" d="M100.957,506.849v-6.418c0-8.534,6.918-15.453,15.453-15.453h74.139   c8.534,0,15.453,6.918,15.453,15.453v6.418c0,2.845-2.306,5.151-5.151,5.151h-94.742C103.263,512,100.957,509.694,100.957,506.849z   "/>
	<path style="fill:#243B5D;" d="M190.549,484.978H164.76c8.534,0,15.453,6.919,15.453,15.453v6.418c0,2.845-2.306,5.151-5.151,5.151   h25.789c2.845,0,5.151-2.306,5.151-5.151v-6.418C206.001,491.896,199.083,484.978,190.549,484.978z"/>
	<circle style="fill:#E0F7FC;" cx="153.479" cy="365.845" r="21.16"/>
	<path style="fill:#52668D;" d="M427.933,326.743c-4.909-8.5-15.815-11.423-24.315-6.515l-10.543,6.087   c-8.5,4.907-11.423,15.814-6.516,24.316c3.294,5.703,9.289,8.895,15.446,8.895c3.017,0,6.073-0.767,8.869-2.381l10.543-6.087   C429.917,346.15,432.84,335.243,427.933,326.743z"/>
</g>















</svg>
